<svg width="362"
     height="141.875"
     viewBox="0 0 362 141.875"
     class="css-1j8o68f">
      <g id="SvgjsG14603"
         featurekey="symbolContainer"
         transform="matrix(2.4375,0,0,2.4375,20.121873430907726,20)"
         fill="#000000">
            <path xmlns="http://www.w3.org/2000/svg"
                  d="M24.95 0a25 25 0 1 0 25 25 25 25 0 0 0-25-25zm0 46.91a22 22 0 1 1 22-22 22 22 0 0 1-22 21.99z">
            </path>
            <path xmlns="http://www.w3.org/2000/svg"
                  d="M24.95 3.65a21.3 21.3 0 1 0 21.3 21.3 21.33 21.33 0 0 0-21.3-21.3z"></path>
      </g>
      <g id="SvgjsG14604"
         featurekey="monogramFeature-0"
         transform="matrix(1.4352662544172374,0,0,1.4352662544172374,59.96133484850381,33.388395629613754)"
         fill="#ffffff">
            <path
                  d="M-0.24 60 c-0.12 0 -0.18 -0.06 -0.18 -0.18 s-0.18 -0.3 -0.42 -0.36 c-0.36 -0.12 -0.42 -0.3 -0.48 -1.08 c0 -0.24 -0.06 -0.36 -0.12 -0.36 l-0.6 -0.06 c-0.18 -0.06 -0.3 -0.12 -0.3 -0.24 l0.12 -0.54 l-0.06 -0.12 c-0.12 -0.06 -0.18 -0.3 -0.18 -0.6 c0 -0.24 -0.06 -0.54 -0.12 -0.6 c-0.12 -0.12 -0.18 -0.54 -0.18 -0.96 l0 -0.42 c0 -0.36 0.12 -0.36 0.66 -0.36 l1.08 -0.18 c0.12 0 0.18 0.06 0.18 0.12 c0 0.12 0 0.18 0.12 0.18 l0.54 -0.18 l0 0.18 c0 0.06 0.06 0.06 0.12 0.06 c0.06 -0.06 0.12 -0.12 0.12 -0.18 l0 -0.18 l0.12 0 l0.36 0.06 l-0.06 -0.24 l0.42 0.06 c0.06 0 0.12 -0.06 0.12 -0.12 s0.06 -0.06 0.06 -0.06 l0.06 0 l0.24 -0.12 c0.12 -0.12 0.3 -0.18 0.36 -0.18 l0.06 0.06 l0.06 -0.12 c0 -0.06 0.12 -0.18 0.3 -0.24 c0.66 -0.18 1.44 -0.6 1.44 -0.84 s1.08 -0.78 1.32 -0.78 l0.06 0 c0 0.12 -0.24 0.24 -0.54 0.42 c-0.36 0.18 -0.54 0.3 -0.54 0.36 l0.18 0.06 c0.24 0 0.42 -0.06 0.54 -0.18 c0.06 -0.12 0.24 -0.24 0.3 -0.3 c0.12 0 0.3 -0.12 0.42 -0.24 c0.06 -0.06 0.3 -0.18 0.42 -0.18 c0.18 0 0.3 -0.06 0.36 -0.12 s0.24 -0.18 0.42 -0.24 c0.24 -0.06 0.48 -0.18 0.6 -0.3 c0.06 -0.06 0.18 -0.12 0.3 -0.12 l0.24 0 l0 -0.18 c0 -0.06 0 -0.06 0.06 -0.06 l0.66 -0.12 c0.06 0 0.36 -0.18 0.6 -0.36 l0.54 -0.3 c0.24 -0.06 0.84 -0.42 0.84 -0.54 s0.66 -0.42 1.08 -0.42 c0.18 0 0.3 -0.06 0.3 -0.12 s-0.06 -0.18 -0.18 -0.3 l-0.12 -0.18 c0 -0.12 0.24 -0.24 0.48 -0.24 l0.54 0.06 c0.18 0 0.24 -0.06 0.3 -0.18 l0 -0.12 c0 -0.06 -0.06 -0.12 -0.24 -0.12 c-0.06 0 -0.12 0 -0.12 -0.06 l0.6 -0.36 c0.42 -0.18 0.78 -0.36 0.9 -0.36 l-0.06 0.24 l-0.12 0.06 l0.06 0.06 l0.18 -0.06 c0.78 -0.24 0.84 -0.24 0.84 -0.42 c0 -0.06 0.12 -0.12 0.24 -0.12 s0.24 -0.06 0.24 -0.18 c0.06 -0.12 0.24 -0.3 0.42 -0.36 c0.12 0 0.36 -0.12 0.42 -0.24 c0.36 -0.36 0.54 -0.48 0.66 -0.48 l0.12 0 c0.12 0 0.12 -0.06 0.18 -0.12 c0 -0.06 0.24 -0.24 0.48 -0.24 c0.36 -0.12 0.96 -0.54 0.96 -0.78 l-0.06 -0.06 l-1.08 0.48 c0 -0.06 0.24 -0.3 0.54 -0.48 c0.24 -0.12 0.48 -0.18 0.6 -0.18 c0 0.12 0.06 0.18 0.18 0.18 s0.36 -0.18 0.6 -0.42 c0.18 -0.24 0.36 -0.42 0.36 -0.48 s0.12 -0.06 0.3 -0.06 l0.18 0 c0.12 0 0.18 0 0.18 -0.06 c0 -0.12 0.18 -0.3 0.42 -0.42 s0.36 -0.3 0.36 -0.36 s0 -0.06 -0.06 -0.06 l-0.24 0.06 c-0.06 0 -0.06 0 -0.06 -0.06 l0 -0.06 c0.06 -0.12 0.18 -0.12 0.3 -0.12 l0.06 0 c0.18 0 0.6 -0.24 1.02 -0.54 c0.48 -0.36 0.84 -0.6 0.84 -0.66 c-0.12 0 -0.42 0.18 -0.78 0.42 c-0.3 0.24 -0.66 0.42 -0.72 0.48 c-0.06 0 -0.12 -0.06 -0.12 -0.12 s0.12 -0.24 0.36 -0.36 c1.08 -0.72 4.32 -3.84 4.32 -4.26 c0 -0.06 0.06 -0.12 0.18 -0.12 s0.18 -0.06 0.18 -0.06 l0 -0.06 c0 -0.12 0.12 -0.3 0.36 -0.54 c0.18 -0.24 0.3 -0.42 0.3 -0.6 c0 -0.3 -0.36 -0.54 -1.14 -0.6 l-0.54 -0.06 l-0.24 0.06 l0 0.06 c0 0.12 -0.36 0.18 -1.08 0.18 l-1.5 0 l-1.68 -0.12 c-0.18 0 -0.24 0.06 -0.24 0.12 c0 0.12 -0.36 0.24 -0.72 0.24 l-0.3 -0.06 c-0.12 -0.06 -0.12 -0.06 -0.12 -0.12 l0.18 -0.18 l-0.06 0 c-0.12 0 -0.24 0.06 -0.3 0.12 c0 0.06 -0.18 0.12 -0.36 0.12 c-0.12 0 -0.24 0.12 -0.24 0.24 c0 0.06 0 0.12 -0.06 0.12 l-0.3 -0.3 l-0.36 -0.24 l-0.06 0.06 c0 0.06 -0.12 0.12 -0.24 0.18 l-0.18 0 l0.24 0.12 c0.12 0.06 0.18 0.06 0.18 0.12 l-0.24 0.12 l-0.72 -0.18 l-0.9 0.12 c0 0.06 0.06 0.06 0.18 0.12 l0.18 0.06 c0 0.06 -0.18 0.12 -0.54 0.18 l-0.48 0.06 c-0.12 0 -0.12 0 -0.12 -0.06 l0 -0.06 l-0.06 -0.12 l-0.18 0.06 c-0.12 0 -0.24 0.12 -0.24 0.18 l-0.06 0.06 l-0.18 -0.06 c-0.12 0 -0.36 0.06 -0.48 0.18 c-0.18 0.18 -0.42 0.24 -1.44 0.42 c-0.12 0.06 -0.3 0.06 -0.36 0.12 s-0.3 0.06 -0.54 0.06 c-0.18 0 -0.42 0.06 -0.42 0.18 c-0.06 0.12 -0.12 0.18 -0.24 0.18 l-0.48 -0.12 c-0.12 0 -0.18 0.06 -0.24 0.12 s-0.3 0.18 -0.54 0.18 l-0.3 0.06 c-0.06 0 -0.12 0 -0.12 -0.06 l0.06 -0.06 l0 -0.12 l-0.12 0.12 l-0.24 0.12 l-0.12 -0.06 s-0.24 0.06 -0.42 0.18 c-0.24 0.18 -0.6 0.24 -1.08 0.24 l-0.36 0 c-0.24 0 -0.42 0 -0.42 0.06 l-0.06 0.06 c-0.06 0 -0.12 -0.06 -0.18 -0.12 c-0.12 -0.12 -0.36 -0.18 -0.78 -0.18 c-0.36 0.06 -0.78 0.06 -1.02 0.06 l-0.12 0 c-0.24 0 -0.6 -0.06 -0.96 -0.18 c-0.48 -0.18 -0.78 -0.24 -0.84 -0.24 l0.36 0.18 c0.18 0.06 0.3 0.12 0.3 0.18 l0 0.06 l-0.06 0 c-0.12 0 -0.36 -0.06 -0.66 -0.18 c-0.66 -0.3 -1.56 -1.38 -1.8 -2.1 c-0.12 -0.18 -0.24 -0.36 -0.3 -0.36 c-0.24 0 -1.26 -1.56 -1.56 -2.4 c-0.18 -0.48 -0.48 -1.62 -0.6 -2.76 c-0.18 -1.02 -0.24 -1.56 -0.24 -2.04 c0 -0.42 0.06 -0.72 0.12 -1.2 c0.18 -0.78 0.3 -1.08 0.42 -1.08 s0.18 -0.06 0.18 -0.18 s-0.06 -0.18 -0.18 -0.18 c-0.06 0 -0.06 -0.06 -0.06 -0.12 l0 -0.06 l0.12 -0.06 l0.12 0 l0.06 0.06 l0 -0.12 c-0.06 -0.06 -0.06 -0.24 -0.06 -0.36 c0.06 -0.12 0.06 -0.18 0.12 -0.18 l0.12 0.12 c0.24 0 0.48 -0.6 0.48 -1.14 c0.06 -0.54 0.3 -1.32 0.54 -1.5 c0.06 0 0.12 0.06 0.12 0.18 c0 0.18 -0.12 0.48 -0.24 0.66 l-0.06 0.12 l0.06 0.12 c0.06 0 0.18 -0.24 0.3 -0.48 c0.18 -0.24 0.36 -0.54 0.48 -0.6 s0.12 -0.06 0.12 -0.12 l-0.12 -0.18 c-0.12 -0.12 -0.18 -0.18 -0.18 -0.3 l0.18 -0.36 c0.12 -0.12 0.18 -0.18 0.24 -0.18 c0 0.12 -0.06 0.24 -0.12 0.36 l-0.06 0.18 l0.12 -0.06 c0.12 -0.06 0.18 -0.24 0.18 -0.42 l0 -0.36 c0 -0.3 0.06 -0.36 0.12 -0.36 s0.06 0.06 0.06 0.12 l0 0.24 s0 0.06 0.06 0.06 c0.12 0 0.48 -0.36 0.72 -0.72 c0.18 -0.3 0.36 -0.6 0.48 -0.6 s0.24 -0.18 0.3 -0.42 c0.06 -0.18 0.3 -0.54 0.54 -0.72 c0.18 -0.24 0.78 -0.72 1.2 -1.2 c0.48 -0.42 0.9 -0.84 1.02 -0.9 l1.2 -1.02 c0.54 -0.48 1.02 -0.84 1.08 -0.84 c0.12 0 0.42 -0.24 0.72 -0.54 c0.96 -1.02 1.26 -1.26 1.86 -1.56 c0.3 -0.18 0.6 -0.36 0.6 -0.42 s0.12 -0.12 0.24 -0.12 c0.06 0 0.12 -0.06 0.12 -0.12 l0 -0.12 l0.12 -0.06 c0.12 0 0.24 -0.06 0.24 -0.12 s0.42 -0.42 0.84 -0.72 c0.78 -0.54 1.26 -0.84 2.88 -1.8 c0.3 -0.18 0.84 -0.3 1.14 -0.3 c0.36 -0.06 0.54 -0.12 0.54 -0.24 c0 -0.06 0.42 -0.36 0.96 -0.54 l1.14 -0.54 c0.36 -0.18 1.86 -0.48 3.72 -0.66 l1.5 -0.12 c2.34 0 3.3 1.02 4.98 3.24 c0.3 0.54 0.78 1.26 1.02 1.56 c0.36 0.48 0.48 0.84 0.66 1.92 l0.12 1.02 c0 0.24 -0.06 0.36 -0.12 0.36 s-0.12 0.18 -0.12 0.42 l0 0.24 c0 0.12 -0.06 0.24 -0.12 0.24 c-0.12 0 -0.36 0.12 -0.54 0.36 c-0.12 0.18 -0.48 0.42 -0.66 0.54 c-0.24 0.06 -0.42 0.18 -0.42 0.3 c0 0.06 -0.12 0.12 -0.3 0.12 c-0.24 0 -0.3 -0.06 -0.3 -0.42 c0 -0.3 -0.06 -0.36 -0.24 -0.36 l-0.06 0 c-0.12 0 -0.18 -0.12 -0.24 -0.42 c0 -0.24 -0.12 -0.42 -0.18 -0.42 c-0.12 0 -0.12 -0.06 -0.12 -0.12 c0 -0.12 0.06 -0.24 0.24 -0.42 l0.24 -0.42 l0.24 -0.48 c0.12 -0.12 0.18 -0.24 0.18 -0.36 c0 -0.3 -0.3 -0.54 -1.02 -0.9 s-1.92 -0.6 -3.12 -0.6 l-1.44 0.12 l-1.02 0.18 c-0.18 0 -0.36 0.06 -0.42 0.12 s-0.24 0.06 -0.42 0.06 s-0.36 0.12 -0.42 0.18 c-0.12 0.06 -0.42 0.18 -0.78 0.18 c-0.3 0 -0.6 0.06 -0.6 0.12 s-0.18 0.12 -0.42 0.12 s-0.48 0.12 -0.6 0.3 c-0.06 0.12 -0.3 0.24 -0.54 0.24 l-0.48 0.24 c-0.18 0.3 -1.2 0.96 -1.86 1.26 c-0.36 0.12 -0.78 0.36 -0.9 0.54 c-0.18 0.18 -0.54 0.42 -0.84 0.6 s-0.66 0.42 -0.78 0.54 c-0.18 0.18 -0.42 0.42 -0.6 0.54 l-1.2 0.9 c-0.48 0.42 -1.02 0.72 -1.14 0.72 c-0.18 0 -0.36 0.12 -0.42 0.36 c-0.06 0.3 -0.36 0.54 -0.6 0.54 l-0.06 0 c-0.06 0 -0.24 0.18 -0.42 0.42 c-0.12 0.24 -0.36 0.42 -0.48 0.42 c-0.06 0 -0.36 0.3 -0.6 0.6 l-3.24 4.02 c-0.42 0.6 -1.8 3.06 -1.8 3.18 c-0.06 0.24 -0.24 0.72 -0.42 1.02 c-0.3 0.54 -0.54 1.92 -0.54 2.76 c0 0.36 0.06 0.6 0.12 0.72 c0.3 0.3 1.5 0.54 2.76 0.54 c0.66 0 1.26 -0.06 1.8 -0.18 l4.56 -1.08 l4.44 -0.96 c0.3 0 0.78 -0.06 0.96 -0.12 l0.96 -0.18 c0.3 0 0.72 -0.06 0.9 -0.12 c0.66 -0.12 2.4 -0.18 3.96 -0.18 l1.02 0 c2.76 0 3 0.06 3.12 0.18 l0.12 0.06 l0 -0.06 c0 -0.12 0.06 -0.18 0.12 -0.18 c0.12 0 0.18 0.06 0.18 0.18 s0.12 0.18 0.24 0.18 l0.06 0 c0.36 0 1.26 0.9 1.86 1.86 c0.36 0.48 0.72 1.14 0.9 1.44 s0.42 0.54 0.48 0.54 c0.06 0.06 0.12 0.18 0.12 0.3 c0 0.18 0.18 0.54 0.3 0.78 c0.3 0.54 0.6 1.92 0.6 2.46 l-0.06 0.24 c-0.06 0.06 -0.12 0.12 -0.12 0.18 l0.06 0.24 c0 0.36 -0.42 1.38 -0.78 1.86 c-0.18 0.18 -0.42 0.54 -0.48 0.78 c-0.24 0.48 -1.14 1.5 -1.38 1.5 l-0.06 -0.06 l-0.06 0.12 c0 0.24 -1.08 1.44 -1.26 1.44 c-0.12 0 -0.18 0.12 -0.18 0.18 s-0.06 0.12 -0.18 0.12 s-0.24 0.12 -0.24 0.18 c0 0.48 -2.46 2.52 -3.18 2.7 c-0.18 0.06 -0.42 0.24 -0.42 0.36 c-0.06 0.18 -0.3 0.36 -0.6 0.48 c-0.3 0.06 -0.72 0.3 -0.9 0.48 c-0.18 0.24 -0.42 0.36 -0.54 0.36 l-0.06 0.06 l0.12 0.12 c0 0.18 -0.48 0.48 -0.72 0.48 l-0.18 -0.06 l0.06 0.12 c0 0.24 -0.48 0.6 -0.96 0.66 c-0.24 0.06 -0.66 0.3 -0.84 0.54 c-0.6 0.6 -2.16 1.56 -2.52 1.56 l-0.06 0 c-0.12 0 -0.36 0.12 -0.48 0.3 c-0.36 0.36 -0.42 0.42 -3.12 1.98 c-0.9 0.48 -1.74 0.9 -1.92 0.9 c-0.12 0 -0.18 0 -0.18 0.06 s-0.48 0.42 -1.08 0.72 c-0.78 0.42 -1.44 0.72 -1.86 0.72 l-0.42 -0.12 l-0.3 -0.06 c0 0.06 0.06 0.12 0.18 0.18 c0.18 0.06 0.24 0.12 0.24 0.18 c0 0.18 -0.24 0.3 -0.72 0.54 l-1.38 0.66 c-0.24 0.18 -0.42 0.24 -0.54 0.24 l-0.12 -0.06 c0 -0.06 -0.06 -0.12 -0.18 -0.12 l-0.42 0.12 c-0.24 0.12 -0.54 0.18 -0.66 0.24 c-0.06 0 -0.12 0.06 -0.12 0.12 l0.12 0.24 c0 0.06 -0.06 0.12 -0.12 0.12 s-0.18 -0.12 -0.24 -0.18 c0 -0.06 -0.06 -0.06 -0.12 -0.06 c-0.12 0 -0.24 0.06 -0.48 0.18 c-0.3 0.18 -0.78 0.36 -1.14 0.42 z M16.26 9.119999999999997 l0.18 -0.06 c0.06 -0.06 0.12 -0.12 0.12 -0.18 s0 -0.06 -0.06 -0.06 s-0.12 0.06 -0.18 0.12 z M12.66 9.719999999999999 l0 -0.18 c0.06 -0.06 0.12 -0.12 0.18 -0.12 l0 0.12 c-0.06 0.12 -0.12 0.18 -0.18 0.18 z M21.24 10.740000000000002 l0.12 -0.06 l-0.06 -0.06 l-0.18 0 l0 0.06 z M9.24 12.119999999999997 c-0.06 0 -0.06 0 -0.06 -0.06 c0 -0.12 0.6 -0.6 0.72 -0.6 l0.12 0.06 c0 0.12 -0.18 0.3 -0.42 0.42 z M13.74 12.18 l0.72 -0.36 l0 -0.06 l-0.06 0 l-0.48 0.24 z M10.86 13.079999999999998 c0.12 0 0.18 -0.06 0.24 -0.12 l0 -0.12 c0 -0.06 0 -0.06 -0.06 -0.06 s-0.18 0.06 -0.24 0.18 c0 0.06 0 0.12 0.06 0.12 z M12.54 13.079999999999998 l0.06 -0.06 l0 -0.06 l-0.18 0 l0 0.06 z M11.76 13.68 c0.06 0 0.12 -0.06 0.12 -0.18 l0.06 -0.06 l-0.06 -0.06 l-0.18 0.24 z M9.96 13.619999999999997 c0.12 0 0.24 0 0.42 -0.12 l0.06 -0.06 s-0.12 -0.06 -0.42 -0.06 l-0.42 0.12 l0.06 0.06 c0.12 0.06 0.18 0.06 0.3 0.06 z M10.68 14.399999999999999 c0.12 0 0.24 -0.06 0.36 -0.12 l0.12 -0.12 c0 -0.06 -0.06 -0.06 -0.18 -0.06 s-0.3 0.06 -0.3 0.18 l-0.06 0.12 l0.06 0 z M12.54 15 l0.12 -0.06 l0 -0.06 l-0.18 0 l0 0.06 z M5.16 15.719999999999999 l-0.12 -0.06 l0 -0.06 l0.12 0 l0.12 0.06 z M11.04 16.200000000000003 l0.3 -0.12 c0 -0.06 -0.12 -0.06 -0.3 -0.06 l-0.24 0.06 l0 0.06 c0 0.06 0.06 0.06 0.12 0.06 l0.12 0 z M9.24 16.380000000000003 c0.12 -0.06 0.24 -0.12 0.24 -0.18 l-0.24 -0.06 c-0.12 0 -0.24 0.12 -0.24 0.18 l0.12 0.06 l0.12 0 z M4.02 16.92 l-0.06 -0.06 l0.06 -0.12 c0 -0.06 0.12 -0.12 0.12 -0.12 l0.06 0.06 l-0.06 0.06 c0 0.12 -0.12 0.18 -0.12 0.18 z M3.6 17.340000000000003 l-0.06 -0.06 l0.06 -0.06 c0.06 -0.12 0.12 -0.18 0.18 -0.18 l0 0.18 c-0.06 0.06 -0.12 0.12 -0.18 0.12 z M2.94 18.060000000000002 l0 -0.18 c0.06 -0.12 0.18 -0.24 0.3 -0.3 l0.12 -0.06 l-0.12 0.24 c-0.18 0.18 -0.24 0.3 -0.3 0.3 z M7.56 19.259999999999998 l0.12 -0.06 l-0.06 -0.06 l-0.18 0 l0 0.06 z M7.02 19.86 c0.06 0 0.12 -0.06 0.12 -0.18 c0 -0.06 0 -0.12 -0.06 -0.12 s-0.12 0.06 -0.12 0.12 l0 0.06 c0 0.06 0 0.12 0.06 0.12 z M4.68 20.1 l0 -0.06 l-0.12 -0.06 l-0.12 0.06 l0 0.06 l0.24 0 z M7.08 20.4 l0.24 -0.12 c0 -0.06 0 -0.12 -0.12 -0.12 c-0.06 0 -0.18 0.06 -0.18 0.12 l0 0.06 z M6.36 20.4 l0.18 -0.06 c0.12 -0.06 0.18 -0.12 0.18 -0.18 l-0.06 0 c-0.06 0 -0.12 0 -0.24 0.12 z M1.56 27.78 c0.12 0 0.24 -0.06 0.24 -0.18 c0 -0.06 -0.06 -0.12 -0.18 -0.12 c-0.06 0 -0.18 0.06 -0.18 0.12 l0 0.06 c0 0.06 0.06 0.12 0.12 0.12 z M25.38 29.94 c-0.18 0 -0.3 0 -0.36 -0.06 s-0.9 -0.06 -1.92 -0.06 c-1.08 0 -1.92 -0.06 -1.98 -0.18 c0 -0.06 0.72 -0.12 1.56 -0.12 l0.78 0 c0.6 0 1.2 0 1.5 0.06 c0.18 0.06 0.42 0.06 0.66 0.06 c0.12 0 0.24 0.06 0.24 0.12 l0 0.06 c-0.06 0.06 -0.3 0.12 -0.48 0.12 z M18 29.94 l-0.18 -0.06 l0.06 -0.06 c0.18 -0.12 1.74 -0.24 2.46 -0.24 c0.24 0 0.42 0.06 0.42 0.12 s-0.24 0.12 -0.6 0.12 s-1.08 0 -1.56 0.06 z M12.66 30.84 l-0.06 -0.06 l0.42 -0.18 c1.14 -0.3 3.24 -0.66 3.9 -0.66 l0.12 0 c0.12 0.12 0.12 0.18 0.12 0.18 c-0.3 0 -3.24 0.48 -3.72 0.54 z M10.92 31.26 l-0.12 0 c-0.12 0 -0.12 0 -0.12 -0.06 l0.12 -0.06 l0.12 0.06 l0 0.06 z M18.78 31.74 c0.12 0 0.12 -0.06 0.12 -0.12 l-0.12 -0.06 l-0.12 0.06 l0 0.06 z M9 31.68 l-0.42 0 l0.06 -0.06 l0.36 0 l0 0.06 z M21.12 31.86 c0.12 0 0.18 0 0.18 -0.06 l-0.18 -0.18 l-0.12 0 l0 0.12 c0 0.06 0.06 0.12 0.12 0.12 z M24.66 31.86 l0.12 -0.06 l0 -0.06 l-0.24 0 l0 0.06 z M18.66 32.28 l0 -0.18 c0 -0.12 -0.12 -0.24 -0.24 -0.24 s-0.12 0 -0.12 0.06 l0.06 0.18 c0.12 0.12 0.24 0.18 0.3 0.18 z M25.98 32.04 l0.12 -0.06 l0 -0.06 l-0.12 -0.06 l-0.06 0.12 z M15.72 32.58 l0.06 -0.12 l-0.06 -0.12 l-0.06 0 l-0.06 0.12 c0.06 0.12 0.06 0.12 0.12 0.12 z M12.12 32.94 c0.12 0 0.42 -0.12 0.48 -0.3 l0.06 -0.12 l-0.06 -0.06 c-0.18 0 -0.6 0.3 -0.6 0.42 c0 0.06 0.06 0.06 0.12 0.06 z M24.36 32.7 l0 -0.06 l-0.36 0 l-0.06 0.06 l0.42 0 z M16.38 32.879999999999995 l-0.06 -0.06 c0 -0.06 -0.06 -0.06 -0.06 -0.06 l-0.12 0.06 l0 0.06 l0.24 0 z M13.86 32.879999999999995 l0 -0.06 c0 -0.06 -0.06 -0.06 -0.12 -0.06 l-0.24 0.06 c0 0.06 0.06 0.06 0.18 0.06 l0.18 0 z M17.46 33.06 l0.12 -0.06 l-0.12 -0.12 l-0.12 0.06 l0 0.06 z M10.5 33.18 c0.18 0 0.36 -0.06 0.42 -0.12 l0 -0.06 c0 -0.06 0 -0.06 -0.06 -0.06 s-0.18 0 -0.36 0.12 l-0.24 0.12 l0.24 0 z M9.96 33.480000000000004 c0.12 0 0.18 -0.06 0.18 -0.12 s-0.18 -0.12 -0.42 -0.12 l-0.3 0 l0.12 0.12 z M13.38 33.72 c0.18 0 0.3 0 0.3 -0.12 c0 -0.06 -0.12 -0.12 -0.3 -0.12 s-0.3 0.06 -0.3 0.12 s0.18 0.12 0.3 0.12 z M12.24 33.66 l0.12 -0.06 l-0.06 -0.06 c0 -0.06 -0.06 -0.06 -0.06 -0.06 c-0.06 0 -0.12 0 -0.12 0.06 l0 0.06 z M16.8 33.66 l0.06 -0.06 l0 -0.06 c0 -0.06 -0.06 -0.06 -0.12 -0.06 c0 0 -0.06 0 -0.06 0.06 l0 0.06 z M23.64 34.2 c0.12 0 0.24 -0.06 0.24 -0.18 l0 -0.12 l0.12 0.12 c0.06 0.12 0.12 0.12 0.18 0.12 l0.06 -0.12 c0 -0.12 -0.06 -0.12 -0.24 -0.12 l-0.24 0 c-0.12 0 -0.24 -0.06 -0.24 -0.18 c0 -0.06 0 -0.06 -0.06 -0.06 l-0.06 0.12 c-0.06 0.12 -0.06 0.24 -0.06 0.3 c0.06 0.06 0.18 0.12 0.3 0.12 z M24.84 33.9 c0 -0.06 0 -0.18 -0.06 -0.24 c-0.06 0 -0.06 0.06 -0.06 0.12 c0 0.12 0.06 0.12 0.12 0.12 z M15.18 33.9 c0.18 0 0.3 0 0.3 -0.06 s-0.24 -0.12 -0.42 -0.12 l-0.12 0.06 c0 0.06 0.06 0.12 0.24 0.12 z M14.34 34.08 c0.06 0 0.12 -0.06 0.12 -0.18 c0 -0.06 -0.06 -0.12 -0.18 -0.12 c-0.06 0 -0.12 0.06 -0.12 0.12 c0 0.12 0.06 0.18 0.18 0.18 z M25.26 34.019999999999996 l0.12 -0.06 c0.12 0 0.24 -0.12 0.24 -0.12 c0 -0.06 -0.12 -0.06 -0.24 -0.06 s-0.24 0.06 -0.24 0.12 z M21.18 33.9 l-0.06 -0.06 c0 -0.06 -0.06 -0.06 -0.06 -0.06 l-0.12 0.06 l0 0.06 l0.24 0 z M19.8 34.08 c0.18 0 0.3 0 0.3 -0.06 l-0.06 -0.06 c-0.06 -0.06 -0.18 -0.06 -0.3 -0.06 l-0.12 0 c-0.18 0 -0.3 0.06 -0.3 0.12 c0 0 0.18 0.06 0.48 0.06 z M22.2 34.2 l0.12 -0.12 l0 -0.06 c0 -0.06 0 -0.12 -0.06 -0.12 c-0.12 0 -0.18 0.12 -0.18 0.18 s0.06 0.12 0.12 0.12 z M16.74 34.08 c0.12 0 0.18 -0.06 0.18 -0.06 l0 -0.06 l-0.3 0 l-0.06 0.06 c0 0.06 0.06 0.06 0.18 0.06 z M18 34.32 l0.54 -0.18 c0 -0.06 -0.12 -0.06 -0.36 -0.06 s-0.42 0.06 -0.42 0.12 c0.06 0.06 0.12 0.12 0.24 0.12 z M20.64 34.379999999999995 l0.12 -0.06 l0 -0.06 l-0.12 -0.06 l-0.06 0.12 z M15.78 35.04 c0.3 0 0.78 -0.12 0.9 -0.24 l0.06 -0.06 l-0.06 -0.06 l-0.18 0.06 c-0.12 0 -0.3 -0.12 -0.42 -0.24 s-0.24 -0.24 -0.3 -0.24 l-0.06 0 l0 0.06 l0.12 0.3 c0.12 0.06 0.12 0.12 0.12 0.18 l-0.42 -0.12 c-0.06 0 -0.12 0.06 -0.12 0.12 s0.06 0.12 0.12 0.18 z M17.58 34.8 l0.3 -0.12 l0.12 -0.12 c0 -0.06 0 -0.06 -0.12 -0.06 c-0.18 0 -0.3 0.06 -0.36 0.18 l0 0.06 c0 0.06 0 0.06 0.06 0.06 z M23.1 34.8 c0.12 0 0.24 -0.06 0.3 -0.12 c0 -0.06 0 -0.06 -0.06 -0.06 l-0.18 0 c-0.18 0.06 -0.24 0.06 -0.24 0.12 s0.06 0.06 0.18 0.06 z M13.38 35.519999999999996 c0 -0.06 -0.06 -0.06 -0.12 -0.12 l-0.36 -0.18 l-0.06 0.06 l0.12 0.12 c0.18 0.06 0.3 0.12 0.42 0.12 z M13.86 35.4 l0.12 -0.06 l0 -0.06 l-0.24 0 c0 0.06 0 0.12 0.12 0.12 z M12.48 35.519999999999996 l0.06 -0.12 l-0.06 -0.12 l-0.06 0 l0 0.12 c0 0.12 0.06 0.12 0.06 0.12 z M11.64 35.7 c0.06 0 0.24 -0.06 0.36 -0.18 l0.06 -0.12 c-0.12 0 -0.24 0.06 -0.36 0.12 c-0.06 0.06 -0.12 0.12 -0.12 0.18 l0.06 0 z M11.82 36 c0.06 0 0.24 -0.06 0.36 -0.18 l0.06 -0.12 l-0.06 0 l-0.3 0.12 c-0.06 0.06 -0.12 0.12 -0.12 0.18 l0.06 0 z M10.74 36.239999999999995 c0.12 0 0.3 -0.06 0.42 -0.12 l0.12 -0.06 c0 -0.06 -0.12 -0.06 -0.36 -0.06 s-0.36 0 -0.36 -0.06 l0.24 -0.24 l-0.48 0.12 l-0.18 0.12 l0.18 0.06 c0.12 0 0.24 0.06 0.24 0.12 s0.06 0.12 0.18 0.12 z M26.82 36.72 c0.06 0 0.06 -0.06 0.06 -0.18 c0 -0.06 -0.06 -0.12 -0.18 -0.12 l-0.06 0.06 z M8.04 37.32 c0.12 0 0.12 -0.06 0.12 -0.12 l-0.12 -0.06 l-0.12 0.06 l0 0.06 z M5.4 37.980000000000004 c-0.06 0 -0.12 -0.06 -0.18 -0.12 l0 -0.06 l0.24 -0.06 c0.18 0 0.3 0 0.3 0.06 z M25.08 38.760000000000005 l0.24 -0.24 c0.12 -0.12 0.24 -0.3 0.24 -0.36 l0 -0.06 s-0.18 0.12 -0.3 0.36 z M24.36 39.3 l0.24 -0.06 c0.12 0 0.18 -0.12 0.18 -0.24 l-0.06 0 l-0.12 0.06 c-0.12 0.12 -0.24 0.18 -0.24 0.24 z M23.76 40.08 c0.06 0 0.12 -0.06 0.18 -0.12 l0.06 -0.12 l-0.06 -0.06 c-0.06 0 -0.12 0.06 -0.18 0.18 l0 0.12 z M23.46 40.379999999999995 c0.06 0 0.12 -0.06 0.12 -0.12 c0 -0.12 0 -0.18 -0.06 -0.18 s-0.12 0.06 -0.12 0.18 l-0.06 0.06 z M22.98 44.64 l0 -0.06 c0 -0.06 -0.06 -0.12 -0.18 -0.18 l-0.06 0 l0 0.06 c0.06 0.12 0.18 0.18 0.24 0.18 z M16.74 44.94 c-0.12 0 -0.12 -0.06 -0.12 -0.18 l0.24 -0.12 c0.06 0 0.06 0 0.06 0.06 l0 0.06 c0 0.12 -0.12 0.18 -0.18 0.18 z M15.6 45.66 l-0.06 -0.06 l0.12 -0.24 c0.06 0 0.12 0.06 0.12 0.18 c0 0.06 -0.06 0.12 -0.18 0.12 z M21 47.82 l0.18 -0.06 c0.06 -0.06 0.12 -0.06 0.12 -0.12 l0 -0.06 l-0.24 0.12 z M11.04 48.3 c-0.12 0 -0.12 -0.06 -0.12 -0.12 l0.24 0 l0 0.06 z M18.54 49.56 l0.18 -0.06 l0.12 -0.24 l0 -0.06 l-0.06 0 c-0.12 0 -0.3 0.18 -0.3 0.3 z M17.52 49.62 c0.06 0 0.06 -0.06 0.06 -0.06 l0 -0.06 l-0.18 0 l0 0.06 z M17.58 50.22 l0.06 -0.06 l-0.06 -0.12 c0 -0.06 -0.12 -0.12 -0.24 -0.12 l-0.06 0.06 l0.06 0.06 c0.06 0.12 0.12 0.18 0.24 0.18 z M13.92 50.88 c0.12 -0.06 0.18 -0.18 0.18 -0.24 c-0.06 -0.06 -0.12 -0.12 -0.18 -0.12 s-0.12 0.06 -0.12 0.24 l0.06 0.12 l0.06 0 z M13.5 50.94 l0.12 -0.06 l0 -0.06 l-0.24 0 c0 0.06 0 0.12 0.12 0.12 z M5.64 51.24 l-0.12 -0.06 l0 -0.06 l0.18 0 l0 0.06 s0 0.06 -0.06 0.06 z M7.32 52.14 l0.12 -0.06 l0 -0.06 l-0.12 -0.06 l-0.12 0.06 l0 0.06 z M15.84 52.08 c0.12 0 0.12 0 0.12 -0.06 l-0.18 -0.06 l-0.18 0.12 l0.24 0 z M6.3 53.76 l0.12 -0.06 l0 -0.06 l-0.12 -0.06 l-0.12 0.06 c0 0.06 0 0.12 0.12 0.12 z M2.22 58.14 l0.06 -0.06 l0 -0.06 l-0.18 0 l0 0.06 z M0.54 58.38 l0.06 -0.12 l-0.06 -0.06 c0 -0.06 0 -0.06 -0.06 -0.06 l0 0.12 z M3.12 59.28 c-0.06 0 -0.06 -0.06 -0.06 -0.12 s0.06 -0.12 0.12 -0.12 s0.06 0 0.06 0.06 l0 0.06 c0 0.06 -0.06 0.12 -0.12 0.12 z">
            </path>
      </g>


</svg>