<svg xmlns="http://www.w3.org/2000/svg"
     width="202"
     height="38"
     class="css-1j8o68f">
      <g>
            <title>Layer 1</title>
            <g id="SvgjsG14312"
               featurekey="nameContainer"
               fill="#fff"
               stroke="null">
                  <rect y="0"
                        height="0.80851"
                        width="1.01"
                        opacity="0"
                        id="svg_1"
                        x="0"
                        stroke="null" />
                  <rect y="33.95745"
                        width="202.00001"
                        height="4.04255"
                        id="svg_2"
                        x="0"
                        stroke="null" />
            </g>
            <g id="SvgjsG14313"
               featurekey="nameFeature-0"
               transform="matrix(1.2 0 0 1.2 -3 -5)"
               fill="#fff">
                  <path d="m20.68,8.7l-2.76,3.2q-2.2,-1.8 -6.16,-1.8q-1.56,0 -2.88,0.68t-1.32,1.56q0,0.72 0.28,1.08q0.36,0.52 1.28,0.72q1.04,0.28 2.96,0.28q4.16,0 6.56,0.92q2.12,0.76 2.96,2.28q0.68,1.24 0.68,3.16q0,3.6 -3,5.52q-2.84,1.84 -7.48,1.84q-2.68,0 -5.18,-1.18t-4.22,-3.22l2.96,-3l0.36,0.4q0.84,0.88 1.36,1.36q0.92,0.76 1.92,1.16q1.24,0.48 2.8,0.48q2.88,0 4.64,-0.88t1.76,-2.48q0,-1.36 -1.56,-1.84q-1.4,-0.44 -4.84,-0.44q-4,0 -6.12,-1.4q-2.44,-1.52 -2.44,-4.76q0,-1.84 1.2,-3.28q1.12,-1.4 3.08,-2.18t4.28,-0.78q2.48,0 4.44,0.52q2.32,0.6 4.44,2.08zm20.72,11.92l0.56,0l-4.04,-7.68l-4.92,9.48q1.36,-0.72 3.08,-1.16q2.48,-0.64 5.32,-0.64zm-5.6,-11.72l-1.36,-2.6l4.44,0l11.2,21.2l-4.52,0l-1.64,-3.12l-2.48,0q-2.36,0 -5,0.56q-2.24,0.44 -4.08,1.2q-1.68,0.64 -2.04,1.12l-0.12,0.24l-4.32,0l9.92,-18.6zm35.96,18.6l-15.28,0l0,-20.72l4.28,0l0,16.56l11,0l0,4.16zm23.96,-20.72l-8.56,12.36l0,8.36l-4.08,0l0,-8.36l-8.72,-12.36l5.2,0l5.52,8.16l5.68,-8.16l4.96,0zm10.28,13.28l0,3.28l13,0l0,4.16l-17.08,0l0,-20.72l16.32,0l0,4.12l-12.24,0l0,5.04q1.24,-0.72 3,-1q1.36,-0.2 3.48,-0.2l3.04,0l0,4.12l-3.04,0q-2.76,0 -4,0.24q-1.08,0.2 -2.48,0.96zm18.2,-13.28l5.16,0l12.52,14.4l0,-14.4l4.12,0l0,20.72l-4.12,0l-11.52,-13.48l0,13.48l-4.12,0l0,-17.64l-2.04,-3.08zm46.16,20.72l-17.16,0l0,-4.16l10.92,-12.44l-10.52,0l0,-4.12l15.96,0l0,4.12l-10.92,12.44l11.72,0l0,4.16z"
                        id="svg_3"
                        stroke="null" />
            </g>
      </g>

</svg>