<svg xmlns="http://www.w3.org/2000/svg"
     width="200"
     height="70.0"
     viewBox="0 0 200 82.92800064086914"
     class="css-1j8o68f">
      <defs id="SvgjsDefs14311"></defs>
      <g id="SvgjsG14312"
         featurekey="nameContainer"
         transform="matrix(1,0,0,1,0,0)"
         fill="#fff">
            <rect y="0"
                  height="1"
                  width="1"
                  opacity="0"></rect>
            <rect y="56"
                  width="200"
                  height="5"></rect>
      </g>
      <g id="SvgjsG14313"
         featurekey="nameFeature-0"
         transform="matrix(1.1907596570933425,0,0,1.1907596570933425,-2.857822722785261,-5.148130076174933)"
         fill="#fff">
            <path
                  d="M20.68 21.2 l-2.76 3.2 q-2.2 -1.8 -6.16 -1.8 q-1.56 0 -2.88 0.68 t-1.32 1.56 q0 0.72 0.28 1.08 q0.36 0.52 1.28 0.72 q1.04 0.28 2.96 0.28 q4.16 0 6.56 0.92 q2.12 0.76 2.96 2.28 q0.68 1.24 0.68 3.16 q0 3.6 -3 5.52 q-2.84 1.84 -7.48 1.84 q-2.68 0 -5.18 -1.18 t-4.22 -3.22 l2.96 -3 l0.36 0.4 q0.84 0.88 1.36 1.36 q0.92 0.76 1.92 1.16 q1.24 0.48 2.8 0.48 q2.88 0 4.64 -0.88 t1.76 -2.48 q0 -1.36 -1.56 -1.84 q-1.4 -0.44 -4.84 -0.44 q-4 0 -6.12 -1.4 q-2.44 -1.52 -2.44 -4.76 q0 -1.84 1.2 -3.28 q1.12 -1.4 3.08 -2.18 t4.28 -0.78 q2.48 0 4.44 0.52 q2.32 0.6 4.44 2.08 z M41.4 33.12 l0.56 0 l-4.04 -7.68 l-4.92 9.48 q1.36 -0.72 3.08 -1.16 q2.48 -0.64 5.32 -0.64 z M35.8 21.4 l-1.36 -2.6 l4.44 0 l11.2 21.2 l-4.52 0 l-1.64 -3.12 l-2.48 0 q-2.36 0 -5 0.56 q-2.24 0.44 -4.08 1.2 q-1.68 0.64 -2.04 1.12 l-0.12 0.24 l-4.32 0 z M71.75999999999999 40 l-15.28 0 l0 -20.72 l4.28 0 l0 16.56 l11 0 l0 4.16 z M95.72000000000001 19.28 l-8.56 12.36 l0 8.36 l-4.08 0 l0 -8.36 l-8.72 -12.36 l5.2 0 l5.52 8.16 l5.68 -8.16 l4.96 0 z M106 32.56 l0 3.28 l13 0 l0 4.16 l-17.08 0 l0 -20.72 l16.32 0 l0 4.12 l-12.24 0 l0 5.04 q1.24 -0.72 3 -1 q1.36 -0.2 3.48 -0.2 l3.04 0 l0 4.12 l-3.04 0 q-2.76 0 -4 0.24 q-1.08 0.2 -2.48 0.96 z M124.2 19.28 l5.16 0 l12.52 14.4 l0 -14.4 l4.12 0 l0 20.72 l-4.12 0 l-11.52 -13.48 l0 13.48 l-4.12 0 l0 -17.64 z M170.36 40 l-17.16 0 l0 -4.16 l10.92 -12.44 l-10.52 0 l0 -4.12 l15.96 0 l0 4.12 l-10.92 12.44 l11.72 0 l0 4.16 z">
            </path>
      </g>

</svg>